HIERARCHY
ROOT hip
{
  OFFSET 0 0 0
  CHANNELS 6 Xposition Yposition Zposition Zrotation Yrotation Xrotation
  JOINT abdomen
  {
    OFFSET 0 20.6881 -0.73152
    CHANNELS 3 Zrotation Xrotation Yrotation
    JOINT chest
    {
      OFFSET 0 11.7043 -0.48768
      CHANNELS 3 Zrotation Xrotation Yrotation
      JOINT neck
      {
        OFFSET 0 22.1894 -2.19456
        CHANNELS 3 Zrotation Xrotation Yrotation
        JOINT head
        {
          OFFSET -0.24384 7.07133 1.2192
          CHANNELS 3 Zrotation Xrotation Yrotation
          JOINT leftEye
          {
            OFFSET 4.14528 8.04674 8.04672
            CHANNELS 3 Zrotation Xrotation Yrotation
            End Site
            {
              OFFSET 1 0 0
            }
          }
          JOINT rightEye
          {
            OFFSET -3.6576 8.04674 8.04672
            CHANNELS 3 Zrotation Xrotation Yrotation
            End Site
            {
              OFFSET 1 0 0
            }
          }
        }
      }
      JOINT rCollar
      {
        OFFSET -2.68224 19.2634 -4.8768
        CHANNELS 3 Zrotation Xrotation Yrotation
        JOINT rShldr
        {
          OFFSET -8.77824 -1.95073 1.46304
          CHANNELS 3 Zrotation Xrotation Yrotation
          JOINT rForeArm
          {
            OFFSET -28.1742 -1.7115 0.48768
            CHANNELS 3 Zrotation Xrotation Yrotation
            JOINT rHand
            {
              OFFSET -22.5879 0.773209 7.07136
              CHANNELS 3 Zrotation Xrotation Yrotation
              JOINT rThumb1
              {
                OFFSET -1.2192 -0.487915 3.41376
                CHANNELS 3 Zrotation Xrotation Yrotation
                JOINT rThumb2
                {
                  OFFSET -3.37035 -0.52449 3.41376
                  CHANNELS 3 Zrotation Xrotation Yrotation
                  End Site
                  {
                    OFFSET -1.78271 -1.18214 1.43049
                  }
                }
              }
              JOINT rIndex1
              {
                OFFSET -7.75947 0.938293 5.60832
                CHANNELS 3 Zrotation Xrotation Yrotation
                JOINT rIndex2
                {
                  OFFSET -2.54057 -0.884171 1.56538
                  CHANNELS 3 Zrotation Xrotation Yrotation
                  End Site
                  {
                    OFFSET -1.62519 -0.234802 1.16502
                  }
                }
              }
              JOINT rMid1
              {
                OFFSET -8.24714 1.18213 3.41376
                CHANNELS 3 Zrotation Xrotation Yrotation
                JOINT rMid2
                {
                  OFFSET -3.10165 -0.590103 1.0647
                  CHANNELS 3 Zrotation Xrotation Yrotation
                  End Site
                  {
                    OFFSET -2.48547 -0.328903 0.83742
                  }
                }
              }
              JOINT rRing1
              {
                OFFSET -8.82822 0.546677 1.51678
                CHANNELS 3 Zrotation Xrotation Yrotation
                JOINT rRing2
                {
                  OFFSET -2.60934 -0.819778 -0.0198488
                  CHANNELS 3 Zrotation Xrotation Yrotation
                  End Site
                  {
                    OFFSET -2.33842 -0.294052 0.168128
                  }
                }
              }
              JOINT rPinky1
              {
                OFFSET -8.27202 -0.0477905 -0.4584
                CHANNELS 3 Zrotation Xrotation Yrotation
                JOINT rPinky2
                {
                  OFFSET -1.82734 -0.647385 -0.700984
                  CHANNELS 3 Zrotation Xrotation Yrotation
                  End Site
                  {
                    OFFSET -1.69225 -0.51767 -0.607171
                  }
                }
              }
            }
          }
        }
      }
      JOINT lCollar
      {
        OFFSET 2.68224 19.2634 -4.8768
        CHANNELS 3 Zrotation Xrotation Yrotation
        JOINT lShldr
        {
          OFFSET 8.77824 -1.95073 1.46304
          CHANNELS 3 Zrotation Xrotation Yrotation
          JOINT lForeArm
          {
            OFFSET 28.1742 -1.7115 0.48768
            CHANNELS 3 Zrotation Xrotation Yrotation
            JOINT lHand
            {
              OFFSET 22.5879 0.773209 7.07136
              CHANNELS 3 Zrotation Xrotation Yrotation
              JOINT lThumb1
              {
                OFFSET 1.2192 -0.487915 3.41376
                CHANNELS 3 Zrotation Xrotation Yrotation
                JOINT lThumb2
                {
                  OFFSET 3.37035 -0.52449 3.41376
                  CHANNELS 3 Zrotation Xrotation Yrotation
                  End Site
                  {
                    OFFSET 1.78271 -1.18214 1.43049
                  }
                }
              }
              JOINT lIndex1
              {
                OFFSET 7.75947 0.938293 5.60832
                CHANNELS 3 Zrotation Xrotation Yrotation
                JOINT lIndex2
                {
                  OFFSET 2.54057 -0.884171 1.56538
                  CHANNELS 3 Zrotation Xrotation Yrotation
                  End Site
                  {
                    OFFSET 1.62519 -0.234802 1.16502
                  }
                }
              }
              JOINT lMid1
              {
                OFFSET 8.24714 1.18213 3.41376
                CHANNELS 3 Zrotation Xrotation Yrotation
                JOINT lMid2
                {
                  OFFSET 3.10165 -0.590103 1.0647
                  CHANNELS 3 Zrotation Xrotation Yrotation
                  End Site
                  {
                    OFFSET 2.48547 -0.328903 0.83742
                  }
                }
              }
              JOINT lRing1
              {
                OFFSET 8.82822 0.546677 1.51678
                CHANNELS 3 Zrotation Xrotation Yrotation
                JOINT lRing2
                {
                  OFFSET 2.60934 -0.819778 -0.0198488
                  CHANNELS 3 Zrotation Xrotation Yrotation
                  End Site
                  {
                    OFFSET 2.33842 -0.294052 0.168128
                  }
                }
              }
              JOINT lPinky1
              {
                OFFSET 8.27202 -0.0477905 -0.4584
                CHANNELS 3 Zrotation Xrotation Yrotation
                JOINT lPinky2
                {
                  OFFSET 1.82734 -0.647385 -0.700984
                  CHANNELS 3 Zrotation Xrotation Yrotation
                  End Site
                  {
                    OFFSET 1.69225 -0.51767 -0.607171
                  }
                }
              }
            }
          }
        }
      }
    }
  }
  JOINT rButtock
  {
    OFFSET -8.77824 4.35084 1.2192
    CHANNELS 3 Zrotation Xrotation Yrotation
    JOINT rThigh
    {
      OFFSET 0 -1.70687 -2.19456
      CHANNELS 3 Zrotation Xrotation Yrotation
      JOINT rShin
      {
        OFFSET 0 -36.8199 0.73152
        CHANNELS 3 Zrotation Xrotation Yrotation
        JOINT rFoot
        {
          OFFSET 0.73152 -45.1104 -5.12064
          CHANNELS 3 Zrotation Xrotation Yrotation
          End Site
          {
            OFFSET -1.1221 -3.69964 12.103
          }
        }
      }
    }
  }
  JOINT lButtock
  {
    OFFSET 8.77824 4.35084 1.2192
    CHANNELS 3 Zrotation Xrotation Yrotation
    JOINT lThigh
    {
      OFFSET 0 -1.70687 -2.19456
      CHANNELS 3 Zrotation Xrotation Yrotation
      JOINT lShin
      {
        OFFSET 0 -36.8199 0.73152
        CHANNELS 3 Zrotation Xrotation Yrotation
        JOINT lFoot
        {
          OFFSET -0.73152 -45.1104 -5.12064
          CHANNELS 3 Zrotation Xrotation Yrotation
          End Site
          {
            OFFSET 1.1221 -3.69964 12.103
          }
        }
      }
    }
  }
}
MOTION
Frames:	6
Frame Time:	0.00833333
55.6734 85.3458 -221.203 -362.034 -0.0073 2.1086 3.38263 7.04042 2.40234 1.3605 -1.72407 0.872972 -3.52133 15.5707 -2.83977 5.08762 -44.9808 -3.78334 -0.0 0.0 0.0 -0.0 0.0 0.0 -1.663e-13 7.08652e-14 -1.36975e-14 75.0733 37.9187 6.08849 -15.0271 -7.8131 27.646 -0.399193 17.6449 2.56268 1.18722e-09 -1.98399e-09 1.01322e-09 2.06549e-09 -3.41469e-09 1.73095e-09 1.18722e-09 -1.98398e-09 1.01321e-09 7.73091 5.47488 0.417314 1.18722e-09 -1.98399e-09 1.01322e-09 2.90554 0.965183 0.102902 1.18722e-09 -1.98399e-09 1.01322e-09 10.2786 0.731801 0.0259123 1.18722e-09 -1.98399e-09 1.01323e-09 2.22167 -0.733487 -0.20892 -1.6634e-13 7.08678e-14 -1.39118e-14 -81.5698 14.0808 1.76158 15.0312 -7.8175 -27.6527 0.397394 17.6569 -2.56374 9.01414e-10 1.2969e-09 1.49467e-09 1.5778e-09 2.25242e-09 2.56887e-09 9.01409e-10 1.2969e-09 1.49467e-09 -7.73091 5.47488 -0.417314 9.01414e-10 1.2969e-09 1.49466e-09 -2.90554 0.965183 -0.102902 9.01405e-10 1.2969e-09 1.49466e-09 -10.2786 0.731801 -0.0259123 9.01424e-10 1.2969e-09 1.49466e-09 -2.22167 -0.733487 0.20892 -2.03217e-16 0.0 -3.88251e-19 17.9167 -13.0794 19.665 0.0293856 28.9408 0.703961 -11.2576 -13.5158 -33.8369 2.03217e-16 0.0 3.88251e-19 2.58347 -20.256 -12.8419 0.220469 32.5032 -0.734687 4.56621 -16.7006 10.7962
55.6327 85.3343 -221.292 -361.978 -0.3114 2.2518 3.37467 6.88057 2.42041 1.33644 -1.65624 0.874094 -3.34612 15.3849 -2.78472 4.77906 -45.0261 -3.7871 -0.0 0.0 0.0 -0.0 0.0 0.0 -1.91941e-13 2.27475e-14 -2.19051e-14 74.9068 37.5703 6.42137 -15.0412 -7.82572 27.6741 -0.392901 17.5289 2.54442 9.75289e-10 -1.94462e-09 1.04773e-09 1.69867e-09 -3.35166e-09 1.79435e-09 9.75294e-10 -1.94462e-09 1.04772e-09 7.73091 5.47488 0.417314 9.75289e-10 -1.94462e-09 1.04772e-09 2.90554 0.965183 0.102902 9.75297e-10 -1.94462e-09 1.04772e-09 10.2786 0.731801 0.0259123 9.75288e-10 -1.94462e-09 1.04773e-09 2.22167 -0.733487 -0.20892 -1.91957e-13 2.27493e-14 -2.21377e-14 -81.4201 14.2467 1.2582 15.1417 -7.91364 -27.881 0.366361 16.9737 -2.45839 9.2025e-10 1.2784e-09 1.42874e-09 1.60828e-09 2.21985e-09 2.45539e-09 9.20249e-10 1.27839e-09 1.42876e-09 -7.73091 5.47488 -0.417314 9.20252e-10 1.2784e-09 1.42874e-09 -2.90554 0.965183 -0.102902 9.20243e-10 1.27839e-09 1.42874e-09 -10.2786 0.731801 -0.0259123 9.20261e-10 1.2784e-09 1.42873e-09 -2.22167 -0.733487 0.20892 -2.03217e-16 0.0 -3.88251e-19 17.8982 -13.2497 19.8144 0.0275513 28.9663 0.701727 -11.173 -13.4414 -33.7186 2.03217e-16 0.0 3.88251e-19 2.586 -20.3315 -12.732 0.219147 32.4023 -0.733021 4.63306 -16.6454 10.9847
55.5904 85.3266 -221.406 -361.994 -0.4695 2.3423 3.37553 6.80684 2.40713 1.36136 -1.60451 0.868659 -3.22291 15.2146 -2.72291 4.49481 -45.0298 -3.76809 -0.0 0.0 0.0 -0.0 0.0 0.0 -1.93023e-13 -7.95178e-15 -2.45499e-14 74.7103 37.2656 6.74173 -15.0392 -7.82429 27.6694 -0.391757 17.517 2.54237 7.73193e-10 -1.74318e-09 9.61819e-10 1.34758e-09 -3.00682e-09 1.64939e-09 7.732e-10 -1.74319e-09 9.61809e-10 7.73091 5.47488 0.417314 7.73194e-10 -1.74319e-09 9.61816e-10 2.90554 0.965183 0.102902 7.73203e-10 -1.74319e-09 9.61816e-10 10.2786 0.731801 0.0259123 7.73193e-10 -1.74319e-09 9.61819e-10 2.22167 -0.733487 -0.20892 -1.93029e-13 -7.9508e-15 -2.47984e-14 -81.3126 14.4072 0.757333 15.2539 -8.0121 -28.113 0.339538 16.3507 -2.3631 8.47308e-10 1.16204e-09 1.29141e-09 1.47978e-09 2.01779e-09 2.21956e-09 8.47308e-10 1.16204e-09 1.29142e-09 -7.73091 5.47488 -0.417314 8.47311e-10 1.16204e-09 1.2914e-09 -2.90554 0.965183 -0.102902 8.47302e-10 1.16204e-09 1.29141e-09 -10.2786 0.731801 -0.0259123 8.47318e-10 1.16205e-09 1.2914e-09 -2.22167 -0.733487 0.20892 -2.03217e-16 0.0 -3.88251e-19 17.8753 -13.3365 19.8904 0.0260517 28.9869 0.699976 -11.1092 -13.4114 -33.587 2.03217e-16 0.0 3.88251e-19 2.59812 -20.3287 -12.637 0.218019 32.3143 -0.731444 4.68249 -16.6126 11.1215
55.5424 85.3447 -221.416 -362.033 -0.6717 2.1271 3.38887 6.86091 2.35054 1.46629 -1.55871 0.854172 -3.19144 15.0239 -2.64873 4.24165 -44.9567 -3.71092 -0.0 0.0 0.0 -0.0 0.0 0.0 -1.53811e-13 -1.13803e-14 -1.79454e-14 74.4273 37.0356 7.07911 -15.0152 -7.80352 27.6197 -0.397861 17.6501 2.56294 5.86311e-10 -1.25815e-09 6.58331e-10 1.02032e-09 -2.16877e-09 1.12796e-09 5.86317e-10 -1.25815e-09 6.5832e-10 7.73091 5.47488 0.417314 5.86312e-10 -1.25815e-09 6.58328e-10 2.90554 0.965183 0.102902 5.86321e-10 -1.25815e-09 6.58328e-10 10.2786 0.731801 0.0259123 5.86311e-10 -1.25815e-09 6.58331e-10 2.22167 -0.733487 -0.20892 -1.53828e-13 -1.13804e-14 -1.82051e-14 -81.2787 14.551 0.241008 15.372 -8.11684 -28.3573 0.316546 15.8016 -2.27951 6.14195e-10 8.82931e-10 1.0434e-09 1.07387e-09 1.53394e-09 1.79448e-09 6.14193e-10 8.8293e-10 1.04342e-09 -7.73091 5.47488 -0.417314 6.14197e-10 8.82931e-10 1.0434e-09 -2.90554 0.965183 -0.102902 6.14189e-10 8.8293e-10 1.0434e-09 -10.2786 0.731801 -0.0259123 6.14203e-10 8.82931e-10 1.0434e-09 -2.22167 -0.733487 0.20892 -2.03217e-16 0.0 -3.88251e-19 17.8384 -13.3046 19.8557 0.0249826 29.0022 0.698942 -11.0742 -13.4548 -33.4203 2.03217e-16 0.0 3.88251e-19 2.62594 -20.2143 -12.542 0.217255 32.2519 -0.730056 4.70463 -16.6258 11.1719
55.4837 85.3513 -221.436 -362.073 -0.8331 2.0421 3.41625 7.01176 2.26832 1.62496 -1.51645 0.834769 -3.21509 14.8119 -2.57211 3.99369 -44.8265 -3.64671 -0.0 0.0 0.0 -0.0 0.0 0.0 -8.32576e-14 7.17437e-19 -5.33302e-15 74.0891 36.8235 7.43155 -14.967 -7.76188 27.5205 -0.411431 17.9384 2.60765 3.7185e-10 -5.20615e-10 1.68498e-10 6.43062e-10 -8.92731e-10 2.84885e-10 3.71852e-10 -5.2061e-10 1.68483e-10 7.73091 5.47488 0.417314 3.7185e-10 -5.20617e-10 1.68494e-10 2.90554 0.965183 0.102902 3.7186e-10 -5.20615e-10 1.68495e-10 10.2786 0.731801 0.0259123 3.7185e-10 -5.20615e-10 1.68498e-10 2.22167 -0.733487 -0.20892 -8.32984e-14 -6.92873e-19 -5.60324e-15 -81.2912 14.6942 -0.296339 15.4963 -8.22794 -28.6154 0.295526 15.2868 -2.20146 2.40305e-10 4.58557e-10 6.80286e-10 4.2367e-10 7.98463e-10 1.17244e-09 2.403e-10 4.58556e-10 6.80306e-10 -7.73091 5.47488 -0.417314 2.40306e-10 4.58554e-10 6.80286e-10 -2.90554 0.965183 -0.102902 2.40297e-10 4.58553e-10 6.80293e-10 -10.2786 0.731801 -0.0259123 2.40311e-10 4.58554e-10 6.80287e-10 -2.22167 -0.733487 0.20892 -2.03217e-16 0.0 -3.88251e-19 17.7906 -13.1951 19.7283 0.0242269 29.0152 0.698347 -11.0475 -13.5401 -33.216 2.03217e-16 0.0 3.88251e-19 2.66997 -20.0284 -12.439 0.216854 32.2134 -0.72875 4.70101 -16.6716 11.1453
55.4456 85.3557 -221.456 -362.044 -0.9344 1.9604 3.44871 7.18887 2.17402 1.78726 -1.5024 0.81296 -3.2319 14.66 -2.49815 3.75464 -44.7036 -3.58704 -0.0 0.0 0.0 -0.0 0.0 0.0 -1.00521e-14 1.33694e-14 7.42375e-15 73.7954 36.6023 7.73611 -14.9095 -7.7123 27.4025 -0.428149 18.2821 2.6612 1.49796e-10 2.19299e-10 -3.12476e-10 2.52925e-10 3.87077e-10 -5.4273e-10 1.49794e-10 2.19309e-10 -3.12496e-10 7.73091 5.47488 0.417314 1.49794e-10 2.193e-10 -3.12481e-10 2.90554 0.965183 0.102902 1.49806e-10 2.19303e-10 -3.1248e-10 10.2786 0.731801 0.0259123 1.49796e-10 2.19304e-10 -3.12476e-10 2.22167 -0.733487 -0.20892 -1.01182e-14 1.3367e-14 7.14149e-15 -81.3001 14.8496 -0.810095 15.6167 -8.33626 -28.8668 0.276538 14.8055 -2.12883 -1.35026e-10 2.18567e-11 2.93718e-10 -2.29207e-10 4.1423e-11 5.09763e-10 -1.35035e-10 2.18573e-11 2.93739e-10 -7.73091 5.47488 -0.417314 -1.35026e-10 2.18522e-11 2.9372e-10 -2.90554 0.965183 -0.102902 -1.35035e-10 2.18504e-11 2.93727e-10 -10.2786 0.731801 -0.0259123 -1.35023e-10 2.18514e-11 2.93723e-10 -2.22167 -0.733487 0.20892 -2.03217e-16 0.0 -3.88251e-19 17.7503 -13.0567 19.5781 0.0236536 29.0243 0.697877 -11.0253 -13.6263 -33.0247 2.03217e-16 0.0 3.88251e-19 2.71476 -19.8159 -12.3679 0.216433 32.1718 -0.727378 4.69329 -16.7072 11.1129
